<svg width="24" height="25" viewBox="0 0 24 25" fill="none" xmlns="http://www.w3.org/2000/svg">
<path d="M18 7.67685C17.94 7.66685 17.87 7.66685 17.81 7.67685C16.43 7.62685 15.33 6.49685 15.33 5.09685C15.33 3.66685 16.48 2.51685 17.91 2.51685C19.34 2.51685 20.49 3.67685 20.49 5.09685C20.48 6.49685 19.38 7.62685 18 7.67685Z" stroke="#008DD9" stroke-width="1.5" stroke-linecap="round" stroke-linejoin="round"/>
<path d="M16.9699 14.9569C18.3399 15.1869 19.8499 14.9469 20.9099 14.2369C22.3199 13.2969 22.3199 11.7569 20.9099 10.8169C19.8399 10.1069 18.3099 9.86688 16.9399 10.1069" stroke="#008DD9" stroke-width="1.5" stroke-linecap="round" stroke-linejoin="round"/>
<path d="M5.96998 7.67685C6.02998 7.66685 6.09998 7.66685 6.15998 7.67685C7.53998 7.62685 8.63998 6.49685 8.63998 5.09685C8.63998 3.66685 7.48998 2.51685 6.05998 2.51685C4.62998 2.51685 3.47998 3.67685 3.47998 5.09685C3.48998 6.49685 4.58998 7.62685 5.96998 7.67685Z" stroke="#008DD9" stroke-width="1.5" stroke-linecap="round" stroke-linejoin="round"/>
<path d="M6.99994 14.9569C5.62994 15.1869 4.11994 14.9469 3.05994 14.2369C1.64994 13.2969 1.64994 11.7569 3.05994 10.8169C4.12994 10.1069 5.65994 9.86688 7.02994 10.1069" stroke="#008DD9" stroke-width="1.5" stroke-linecap="round" stroke-linejoin="round"/>
<path d="M12 15.1468C11.94 15.1368 11.87 15.1368 11.81 15.1468C10.43 15.0968 9.32996 13.9668 9.32996 12.5668C9.32996 11.1368 10.48 9.98682 11.91 9.98682C13.34 9.98682 14.49 11.1468 14.49 12.5668C14.48 13.9668 13.38 15.1068 12 15.1468Z" stroke="#008DD9" stroke-width="1.5" stroke-linecap="round" stroke-linejoin="round"/>
<path d="M9.08997 18.2968C7.67997 19.2368 7.67997 20.7768 9.08997 21.7168C10.69 22.7868 13.31 22.7868 14.91 21.7168C16.32 20.7768 16.32 19.2368 14.91 18.2968C13.32 17.2368 10.69 17.2368 9.08997 18.2968Z" stroke="#008DD9" stroke-width="1.5" stroke-linecap="round" stroke-linejoin="round"/>
</svg>
