<svg width="24" height="25" viewBox="0 0 24 25" fill="none" xmlns="http://www.w3.org/2000/svg">
<path d="M21.67 14.8168L21.27 19.8168C21.12 21.3468 21 22.5168 18.29 22.5168H5.71001C3.00001 22.5168 2.88001 21.3468 2.73001 19.8168L2.33001 14.8168C2.25001 13.9868 2.51001 13.2168 2.98001 12.6268C2.99001 12.6168 2.99001 12.6168 3.00001 12.6068C3.55001 11.9368 4.38001 11.5168 5.31001 11.5168H18.69C19.62 11.5168 20.44 11.9368 20.98 12.5868C20.99 12.5968 21 12.6068 21 12.6168C21.49 13.2068 21.76 13.9768 21.67 14.8168Z" stroke="#FA8C15" stroke-width="1.5" stroke-miterlimit="10"/>
<path d="M3.5 11.9469V6.79688C3.5 3.39687 4.35 2.54688 7.75 2.54688H9.02C10.29 2.54688 10.58 2.92687 11.06 3.56687L12.33 5.26688C12.65 5.68688 12.84 5.94687 13.69 5.94687H16.24C19.64 5.94687 20.49 6.79688 20.49 10.1969V11.9869" stroke="#FA8C15" stroke-width="1.5" stroke-miterlimit="10" stroke-linecap="round" stroke-linejoin="round"/>
<path d="M9.43005 17.5168H14.5701" stroke="#FA8C15" stroke-width="1.5" stroke-miterlimit="10" stroke-linecap="round" stroke-linejoin="round"/>
</svg>
