<svg width="24" height="25" viewBox="0 0 24 25" fill="none" xmlns="http://www.w3.org/2000/svg">
<path d="M21.67 15.2912L21.27 20.2912C21.12 21.8212 21 22.9912 18.29 22.9912H5.71001C3.00001 22.9912 2.88001 21.8212 2.73001 20.2912L2.33001 15.2912C2.25001 14.4612 2.51001 13.6912 2.98001 13.1012C2.99001 13.0912 2.99001 13.0912 3.00001 13.0812C3.55001 12.4112 4.38001 11.9912 5.31001 11.9912H18.69C19.62 11.9912 20.44 12.4112 20.98 13.0612C20.99 13.0712 21 13.0812 21 13.0912C21.49 13.6812 21.76 14.4512 21.67 15.2912Z" stroke="#008DD9" stroke-width="1.5" stroke-miterlimit="10"/>
<path d="M3.5 12.4212V7.27124C3.5 3.87124 4.35 3.02124 7.75 3.02124H9.02C10.29 3.02124 10.58 3.40124 11.06 4.04124L12.33 5.74124C12.65 6.16124 12.84 6.42124 13.69 6.42124H16.24C19.64 6.42124 20.49 7.27124 20.49 10.6712V12.4612" stroke="#008DD9" stroke-width="1.5" stroke-miterlimit="10" stroke-linecap="round" stroke-linejoin="round"/>
<path d="M9.43005 17.9912H14.5701" stroke="#008DD9" stroke-width="1.5" stroke-miterlimit="10" stroke-linecap="round" stroke-linejoin="round"/>
</svg>
